<svg width="50" height="50" viewBox="0 0 50 50" fill="none" xmlns="http://www.w3.org/2000/svg">
<path fill-rule="evenodd" clip-rule="evenodd" d="M16.5 2.0625C24.4736 2.0625 30.9375 5.29421 30.9375 9.28125V12.375C30.9375 13.5141 30.0141 14.4375 28.875 14.4375H26.8125C24.1921 15.7744 20.5398 16.5 16.5 16.5C12.4602 16.5 8.80793 15.7744 6.1875 14.4375V17.5312C6.1875 19.028 9.73094 20.2766 14.4386 20.5632C15.5756 20.6324 16.5 21.5484 16.5 22.6875C16.5 23.8266 15.5753 24.7578 14.4385 24.6852C11.2257 24.4802 8.35393 23.7928 6.1875 22.6875V25.7812C6.1875 27.278 9.73094 28.5266 14.4386 28.8131C15.5756 28.8824 16.5 29.7984 16.5 30.9375C16.5 32.0766 15.5746 33.0082 14.4384 32.927C7.44136 32.4268 2.0625 29.4183 2.0625 25.7812V9.28125C2.0625 5.29421 8.52638 2.0625 16.5 2.0625ZM6.1875 9.28125C6.1875 7.57274 10.8046 6.1875 16.5 6.1875C22.1954 6.1875 26.8125 7.57274 26.8125 9.28125C26.8125 10.9898 22.1954 12.375 16.5 12.375C10.8046 12.375 6.1875 10.9898 6.1875 9.28125Z" fill="#2530FF"/>
<path fill-rule="evenodd" clip-rule="evenodd" d="M47.4375 23.7187C47.4375 19.7319 40.9736 16.5 33 16.5C25.0264 16.5 18.5625 19.7319 18.5625 23.7187V40.2187C18.5625 44.2056 25.0264 47.4375 33 47.4375C40.9736 47.4375 47.4375 44.2056 47.4375 40.2187V23.7187ZM22.6875 40.2187C22.6875 41.9273 27.3046 43.3125 33 43.3125C38.6954 43.3125 43.3125 41.9273 43.3125 40.2187V37.125C40.6921 38.4621 37.0398 39.1875 33 39.1875C28.9602 39.1875 25.3079 38.4621 22.6875 37.125V40.2187ZM33 35.0625C27.3046 35.0625 22.6875 33.6773 22.6875 31.9687V28.875C25.3079 30.2121 28.9602 30.9375 33 30.9375C37.0398 30.9375 40.6921 30.2121 43.3125 28.875V31.9687C43.3125 33.6773 38.6954 35.0625 33 35.0625ZM33 20.625C27.3046 20.625 22.6875 22.0102 22.6875 23.7187C22.6875 25.4273 27.3046 26.8125 33 26.8125C38.6954 26.8125 43.3125 25.4273 43.3125 23.7187C43.3125 22.0102 38.6954 20.625 33 20.625Z" fill="#2530FF"/>
</svg>
