<svg width="34" height="34" viewBox="0 0 34 34" fill="none" xmlns="http://www.w3.org/2000/svg">
<path d="M29.75 11.334L24.7055 14.1365C21.8932 15.6989 20.487 16.4802 18.9978 16.7865C17.6797 17.0575 16.3203 17.0575 15.0022 16.7865C13.5131 16.4802 12.1069 15.6989 9.29447 14.1365L4.25 11.334M8.78333 26.9173H25.2167C26.8035 26.9173 27.597 26.9173 28.203 26.6085C28.7361 26.3369 29.1696 25.9034 29.4412 25.3703C29.75 24.7643 29.75 23.9708 29.75 22.384V11.6173C29.75 10.0305 29.75 9.23709 29.4412 8.63101C29.1696 8.09788 28.7361 7.66444 28.203 7.3928C27.597 7.08398 26.8035 7.08398 25.2167 7.08398H8.78333C7.19652 7.08398 6.40311 7.08398 5.79703 7.3928C5.26389 7.66444 4.83045 8.09788 4.55882 8.63101C4.25 9.23709 4.25 10.0305 4.25 11.6173V22.384C4.25 23.9708 4.25 24.7643 4.55882 25.3703C4.83045 25.9034 5.26389 26.3369 5.79703 26.6085C6.40311 26.9173 7.19651 26.9173 8.78333 26.9173Z" stroke="white" stroke-width="2.83333" stroke-linecap="round" stroke-linejoin="round"/>
</svg>
