<svg width="50" height="50" viewBox="0 0 50 50" fill="none" xmlns="http://www.w3.org/2000/svg">
<path d="M30.9375 14.4375C30.9375 17.8548 28.1674 20.625 24.75 20.625C21.3326 20.625 18.5625 17.8548 18.5625 14.4375C18.5625 11.0202 21.3326 8.25 24.75 8.25C28.1674 8.25 30.9375 11.0202 30.9375 14.4375Z" stroke="#2530FF" stroke-width="4.125" stroke-linecap="round" stroke-linejoin="round"/>
<path d="M20.625 33C20.625 36.4174 17.8548 39.1875 14.4375 39.1875C11.0202 39.1875 8.25 36.4174 8.25 33C8.25 29.5826 11.0202 26.8125 14.4375 26.8125C17.8548 26.8125 20.625 29.5826 20.625 33Z" stroke="#2530FF" stroke-width="4.125" stroke-linecap="round" stroke-linejoin="round"/>
<path d="M41.25 33C41.25 36.4174 38.4799 39.1875 35.0625 39.1875C31.6451 39.1875 28.875 36.4174 28.875 33C28.875 29.5826 31.6451 26.8125 35.0625 26.8125C38.4799 26.8125 41.25 29.5826 41.25 33Z" stroke="#2530FF" stroke-width="4.125" stroke-linecap="round" stroke-linejoin="round"/>
</svg>
