<svg width="34" height="34" viewBox="0 0 34 34" fill="none" xmlns="http://www.w3.org/2000/svg">
<path d="M31.5429 3.43862C31.1396 3.10306 30.6528 2.88314 30.1344 2.80226C29.616 2.72138 29.0853 2.78258 28.5989 2.97932L3.21099 13.2294C2.66805 13.4528 2.20589 13.836 1.88584 14.3282C1.56579 14.8204 1.40299 15.3983 1.41905 15.9851C1.43511 16.572 1.62927 17.1401 1.97576 17.6141C2.32225 18.088 2.80469 18.4454 3.35903 18.6387L8.49444 20.4248L11.3568 29.8904C11.3957 30.0169 11.4522 30.1373 11.5245 30.248C11.5355 30.265 11.551 30.2777 11.5627 30.2942C11.6463 30.4108 11.7473 30.5139 11.8622 30.5998C11.8949 30.6247 11.9262 30.6481 11.9611 30.6702C12.0956 30.7594 12.2445 30.8247 12.4013 30.863L12.4181 30.8645L12.4276 30.8685C12.5218 30.8877 12.6178 30.8974 12.714 30.8976C12.7232 30.8976 12.7314 30.8932 12.7406 30.893C12.8857 30.8904 13.0296 30.8655 13.1671 30.8189C13.1991 30.808 13.2265 30.7898 13.2576 30.7766C13.3601 30.7341 13.4573 30.6796 13.547 30.6143C13.6188 30.5538 13.6907 30.4932 13.7626 30.4327L17.5907 26.2063L23.3002 30.6292C23.8029 31.0205 24.4216 31.2332 25.0586 31.2338C25.7261 31.2329 26.373 31.0026 26.8909 30.5814C27.4088 30.1603 27.7661 29.5739 27.903 28.9206L32.5252 6.23046C32.6299 5.71978 32.5939 5.19023 32.4208 4.69846C32.2478 4.2067 31.9444 3.77122 31.5429 3.43862ZM13.2757 20.8758C13.0793 21.0715 12.945 21.3208 12.8897 21.5924L12.4512 23.7231L11.3405 20.0496L17.0996 17.0506L13.2757 20.8758ZM25.0365 28.3893L18.2894 23.1626C18.0071 22.9445 17.653 22.8407 17.2976 22.872C16.9422 22.9033 16.6117 23.0673 16.3719 23.3314L15.1459 24.6846L15.5792 22.5788L25.6134 12.5445C25.8529 12.3054 25.9988 11.9883 26.0247 11.6508C26.0507 11.3133 25.9548 10.9777 25.7546 10.7047C25.5545 10.4318 25.2631 10.2396 24.9334 10.1629C24.6037 10.0862 24.2575 10.1301 23.9574 10.2867L9.55659 17.7846L4.28041 15.8538L29.7499 5.66459L25.0365 28.3893Z" fill="white"/>
</svg>
